<svg width="50" height="50" viewBox="0 0 50 50" fill="none" xmlns="http://www.w3.org/2000/svg">
<rect width="50" height="50" rx="14" fill="black"/>
<mask id="path-2-outside-1_177_5" maskUnits="userSpaceOnUse" x="16" y="12" width="19" height="25" fill="black">
<rect fill="white" x="16" y="12" width="19" height="25"/>
<path d="M17.484 13.804H26.164C27.1146 13.804 28.0033 13.959 28.83 14.269C29.6566 14.5583 30.3696 14.9717 30.969 15.509C31.589 16.0257 32.0746 16.6353 32.426 17.338C32.7773 18.0407 32.953 18.795 32.953 19.601C32.953 20.779 32.6636 21.771 32.085 22.577C31.527 23.3623 30.8243 23.9617 29.977 24.375V24.623C31.1136 25.0363 32.023 25.6873 32.705 26.576C33.4076 27.444 33.759 28.529 33.759 29.831C33.759 30.7817 33.5626 31.6393 33.17 32.404C32.798 33.148 32.2813 33.7887 31.62 34.326C30.9586 34.8633 30.1836 35.2767 29.295 35.566C28.427 35.8553 27.4866 36 26.474 36H17.484V13.804ZM25.854 22.856C26.8253 22.856 27.5693 22.5977 28.086 22.081C28.6233 21.5437 28.892 20.9133 28.892 20.19C28.892 19.4667 28.6336 18.8467 28.117 18.33C27.6003 17.8133 26.8873 17.555 25.978 17.555H21.669V22.856H25.854ZM26.319 32.156C27.373 32.156 28.179 31.8977 28.737 31.381C29.295 30.8437 29.574 30.1617 29.574 29.335C29.574 28.5083 29.2846 27.8263 28.706 27.289C28.148 26.731 27.311 26.452 26.195 26.452H21.669V32.156H26.319Z"/>
</mask>
<path d="M17.484 13.804H26.164C27.1146 13.804 28.0033 13.959 28.83 14.269C29.6566 14.5583 30.3696 14.9717 30.969 15.509C31.589 16.0257 32.0746 16.6353 32.426 17.338C32.7773 18.0407 32.953 18.795 32.953 19.601C32.953 20.779 32.6636 21.771 32.085 22.577C31.527 23.3623 30.8243 23.9617 29.977 24.375V24.623C31.1136 25.0363 32.023 25.6873 32.705 26.576C33.4076 27.444 33.759 28.529 33.759 29.831C33.759 30.7817 33.5626 31.6393 33.17 32.404C32.798 33.148 32.2813 33.7887 31.62 34.326C30.9586 34.8633 30.1836 35.2767 29.295 35.566C28.427 35.8553 27.4866 36 26.474 36H17.484V13.804ZM25.854 22.856C26.8253 22.856 27.5693 22.5977 28.086 22.081C28.6233 21.5437 28.892 20.9133 28.892 20.19C28.892 19.4667 28.6336 18.8467 28.117 18.33C27.6003 17.8133 26.8873 17.555 25.978 17.555H21.669V22.856H25.854ZM26.319 32.156C27.373 32.156 28.179 31.8977 28.737 31.381C29.295 30.8437 29.574 30.1617 29.574 29.335C29.574 28.5083 29.2846 27.8263 28.706 27.289C28.148 26.731 27.311 26.452 26.195 26.452H21.669V32.156H26.319Z" fill="url(#paint0_linear_177_5)"/>
<path d="M17.484 13.804V12.804H16.484V13.804H17.484ZM28.83 14.269L28.4788 15.2053L28.4892 15.2092L28.4996 15.2129L28.83 14.269ZM30.969 15.509L30.3014 16.2536L30.3149 16.2656L30.3288 16.2772L30.969 15.509ZM32.426 17.338L33.3204 16.8908L33.3204 16.8908L32.426 17.338ZM32.085 22.577L31.2726 21.9938L31.2698 21.9978L32.085 22.577ZM29.977 24.375L29.5385 23.4762L28.977 23.7502V24.375H29.977ZM29.977 24.623H28.977V25.3234L29.6352 25.5628L29.977 24.623ZM32.705 26.576L31.9116 27.1848L31.9195 27.1951L31.9277 27.2052L32.705 26.576ZM33.17 32.404L32.2803 31.9472L32.2755 31.9568L33.17 32.404ZM31.62 34.326L30.9894 33.5499L30.9894 33.5499L31.62 34.326ZM29.295 35.566L28.9854 34.6151L28.9787 34.6173L29.295 35.566ZM17.484 36H16.484V37H17.484V36ZM28.117 18.33L28.8241 17.6229L28.8241 17.6229L28.117 18.33ZM21.669 17.555V16.555H20.669V17.555H21.669ZM21.669 22.856H20.669V23.856H21.669V22.856ZM28.737 31.381L29.4164 32.1148L29.4235 32.1081L29.4306 32.1013L28.737 31.381ZM28.706 27.289L27.9988 27.9961L28.0119 28.0092L28.0255 28.0218L28.706 27.289ZM21.669 26.452V25.452H20.669V26.452H21.669ZM21.669 32.156H20.669V33.156H21.669V32.156ZM17.484 14.804H26.164V12.804H17.484V14.804ZM26.164 14.804C27.004 14.804 27.7728 14.9406 28.4788 15.2053L29.1811 13.3327C28.2338 12.9774 27.2253 12.804 26.164 12.804V14.804ZM28.4996 15.2129C29.2129 15.4625 29.8086 15.8117 30.3014 16.2536L31.6365 14.7644C30.9307 14.1316 30.1004 13.6542 29.1603 13.3251L28.4996 15.2129ZM30.3288 16.2772C30.8458 16.708 31.2436 17.2094 31.5315 17.7852L33.3204 16.8908C32.9056 16.0613 32.3322 15.3433 31.6091 14.7408L30.3288 16.2772ZM31.5315 17.7852C31.8116 18.3453 31.953 18.9461 31.953 19.601H33.953C33.953 18.6439 33.743 17.736 33.3204 16.8908L31.5315 17.7852ZM31.953 19.601C31.953 20.61 31.7077 21.3878 31.2726 21.9938L32.8973 23.1602C33.6195 22.1542 33.953 20.948 33.953 19.601H31.953ZM31.2698 21.9978C30.8064 22.6499 30.2321 23.1379 29.5385 23.4762L30.4154 25.2738C31.4164 24.7854 32.2475 24.0748 32.9001 23.1562L31.2698 21.9978ZM28.977 24.375V24.623H30.977V24.375H28.977ZM29.6352 25.5628C30.6078 25.9165 31.3549 26.4593 31.9116 27.1848L33.4983 25.9672C32.6911 24.9154 31.6195 24.1562 30.3187 23.6832L29.6352 25.5628ZM31.9277 27.2052C32.4631 27.8665 32.759 28.7183 32.759 29.831H34.759C34.759 28.3397 34.3522 27.0215 33.4822 25.9468L31.9277 27.2052ZM32.759 29.831C32.759 30.6399 32.593 31.3383 32.2804 31.9472L34.0595 32.8608C34.5322 31.9403 34.759 30.9234 34.759 29.831H32.759ZM32.2755 31.9568C31.9687 32.5705 31.5431 33.0999 30.9894 33.5499L32.2505 35.1021C33.0194 34.4774 33.6272 33.7255 34.0644 32.8512L32.2755 31.9568ZM30.9894 33.5499C30.4322 34.0026 29.7685 34.3601 28.9854 34.6151L29.6045 36.5169C30.5987 36.1932 31.485 35.7241 32.2505 35.1021L30.9894 33.5499ZM28.9787 34.6173C28.223 34.8692 27.3905 35 26.474 35V37C27.5827 37 28.6309 36.8414 29.6112 36.5147L28.9787 34.6173ZM26.474 35H17.484V37H26.474V35ZM18.484 36V13.804H16.484V36H18.484ZM25.854 23.856C27.0002 23.856 28.0334 23.5478 28.7931 22.7881L27.3788 21.3739C27.1052 21.6476 26.6504 21.856 25.854 21.856V23.856ZM28.7931 22.7881C29.5074 22.0738 29.892 21.1931 29.892 20.19H27.892C27.892 20.6336 27.7392 21.0135 27.3788 21.3739L28.7931 22.7881ZM29.892 20.19C29.892 19.1984 29.5261 18.325 28.8241 17.6229L27.4098 19.0371C27.7411 19.3684 27.892 19.7349 27.892 20.19H29.892ZM28.8241 17.6229C28.0764 16.8752 27.0839 16.555 25.978 16.555V18.555C26.6907 18.555 27.1242 18.7515 27.4098 19.0371L28.8241 17.6229ZM25.978 16.555H21.669V18.555H25.978V16.555ZM20.669 17.555V22.856H22.669V17.555H20.669ZM21.669 23.856H25.854V21.856H21.669V23.856ZM26.319 33.156C27.527 33.156 28.6124 32.8592 29.4164 32.1148L28.0575 30.6472C27.7455 30.9362 27.219 31.156 26.319 31.156V33.156ZM29.4306 32.1013C30.1985 31.3618 30.574 30.4131 30.574 29.335H28.574C28.574 29.9102 28.3914 30.3255 28.0433 30.6607L29.4306 32.1013ZM30.574 29.335C30.574 28.2449 30.1794 27.2925 29.3864 26.5562L28.0255 28.0218C28.3899 28.3601 28.574 28.7717 28.574 29.335H30.574ZM29.4131 26.5819C28.6014 25.7702 27.4651 25.452 26.195 25.452V27.452C27.1568 27.452 27.6945 27.6918 27.9988 27.9961L29.4131 26.5819ZM26.195 25.452H21.669V27.452H26.195V25.452ZM20.669 26.452V32.156H22.669V26.452H20.669ZM21.669 33.156H26.319V31.156H21.669V33.156Z" fill="#E9E9E9" mask="url(#path-2-outside-1_177_5)"/>
<defs>
<linearGradient id="paint0_linear_177_5" x1="15" y1="25" x2="35" y2="25" gradientUnits="userSpaceOnUse">
<stop stop-color="#C6A9D5"/>
<stop offset="0.525" stop-color="#D085CB"/>
<stop offset="1" stop-color="#EE6565"/>
</linearGradient>
</defs>
</svg>
